<svg width="72" height="23" viewBox="0 0 72 23" fill="none" xmlns="http://www.w3.org/2000/svg">
<g id="Group">
<path id="Vector" d="M10.1362 11.7772C8.42833 11.5972 6.90124 11.5041 5.25572 11.5041C4.58255 11.5041 3.91562 11.5041 3.21128 11.5351C3.21128 16.1534 3.30478 19.2198 4.24597 20.2564C4.88797 20.2875 5.49881 20.2875 6.10965 20.2875C8.4595 20.2875 10.6535 20.1385 12.486 19.8343V22.2924C10.7159 22.1993 8.79608 22.1683 6.93241 22.1683C5.06873 22.1683 2.56928 22.2614 0.46875 22.2924C0.618343 18.6798 0.805334 14.1236 0.805334 10.933C0.805334 7.74247 0.624576 4.52087 0.46875 0.908203C2.57551 1.00131 4.98147 1.03235 6.84514 1.03235C8.70882 1.03235 10.3232 1.00131 12.0934 0.908203V3.12422C10.2608 2.82006 8.06681 2.67108 5.71696 2.67108C4.95653 2.67108 4.15871 2.70212 3.36711 2.73316C3.27362 5.01124 3.21752 7.44452 3.21752 9.93365C3.92185 9.96469 4.58879 9.96469 5.26195 9.96469C6.90747 9.96469 8.43457 9.87158 10.1424 9.69157V11.7896L10.1362 11.7772Z" fill="white"/>
<path id="Vector_2" d="M17.0299 10.983C17.0299 7.7924 16.8492 4.51493 16.6934 0.896057C18.9809 0.989167 21.3619 0.833984 23.4063 0.833984C30.6678 0.833984 34.1147 4.71977 34.1147 10.8588C34.1147 16.9979 30.6678 22.3424 23.8364 22.3424C21.2746 22.3424 18.9871 22.1934 16.6996 22.2803C16.8492 18.6676 17.0362 14.1673 17.0362 10.9768L17.0299 10.983ZM20.4145 20.1263C21.4242 20.4305 22.4278 20.5547 23.8302 20.5547C29.7453 20.5547 31.3036 15.8433 31.3036 10.865C31.3036 6.15366 28.3429 2.39202 22.6397 2.39202C21.8481 2.39202 20.6264 2.4541 19.6478 2.541C19.4982 5.48948 19.4359 8.31381 19.4359 10.983C19.4359 16.0543 19.4671 18.9718 20.4145 20.1263Z" fill="white"/>
<path id="Vector_3" d="M48.1069 11.7772C46.399 11.5972 44.8719 11.5041 43.2264 11.5041C42.5533 11.5041 41.8863 11.5041 41.182 11.5351C41.182 16.1534 41.2755 19.2198 42.2167 20.2564C42.8587 20.2875 43.4695 20.2875 44.0803 20.2875C46.4302 20.2875 48.6242 20.1385 50.4567 19.8343V22.2924C48.6866 22.1993 46.7668 22.1683 44.9031 22.1683C43.0394 22.1683 40.54 22.2614 38.4395 22.2924C38.589 18.6798 38.776 14.1236 38.776 10.933C38.776 7.74247 38.5953 4.52087 38.4395 0.908203C40.5462 1.00131 42.9522 1.03235 44.8158 1.03235C46.6795 1.03235 48.2939 1.00131 50.0641 0.908203V3.12422C48.2315 2.82006 46.0375 2.67108 43.6877 2.67108C42.9272 2.67108 42.1294 2.70212 41.3378 2.73316C41.2443 5.01124 41.1882 7.44452 41.1882 9.93365C41.8926 9.96469 42.5595 9.96469 43.2327 9.96469C44.8782 9.96469 46.4053 9.87158 48.1131 9.69157V11.7896L48.1069 11.7772Z" fill="white"/>
<path id="Vector_4" d="M68.3584 22.4665C64.0888 15.9364 61.1281 11.045 57.0704 5.09221H57.0081C56.9457 6.613 56.8834 8.89109 56.8834 10.983C56.8834 14.1735 56.9769 18.6056 57.22 22.2244H54.6582C54.8078 18.6118 54.9636 14.1735 54.9636 10.983C54.9636 7.79239 54.8701 5.06117 54.6894 1.4423C56.0606 0.989167 56.8522 0.833984 57.7996 0.833984C61.34 6.87992 64.8741 12.3796 69.0253 18.5435H69.0877C69.1812 16.3275 69.2684 13.0128 69.2684 10.9768C69.2684 7.78619 69.0877 4.56459 68.9318 0.951923H71.4936C71.2505 4.56459 71.1882 7.78619 71.1882 10.9768C71.1882 14.1673 71.2505 18.3262 71.4624 21.852C70.0912 22.3051 69.2996 22.4603 68.3522 22.4603L68.3584 22.4665Z" fill="white"/>
</g>
</svg>
