<svg width="43" height="6" viewBox="0 0 43 6" fill="none" xmlns="http://www.w3.org/2000/svg">
<g id="Group">
<path id="Vector" d="M3.53481 3.16766C3.0798 3.118 2.67465 3.09317 2.23834 3.09317C2.05758 3.09317 1.88305 3.09317 1.69606 3.09938C1.69606 4.32222 1.72099 5.13538 1.97031 5.4085C2.13861 5.41471 2.30067 5.41471 2.46272 5.41471C3.08603 5.41471 3.6657 5.37747 4.15187 5.29677V5.94854C3.6844 5.92371 3.17329 5.9175 2.68088 5.9175C2.18847 5.9175 1.52154 5.94233 0.966797 5.94854C1.0042 4.99261 1.05406 3.78218 1.05406 2.93798C1.05406 2.09379 1.0042 1.23718 0.966797 0.28125C1.52777 0.306079 2.16354 0.312286 2.65595 0.312286C3.14836 0.312286 3.57844 0.306079 4.04591 0.28125V0.870947C3.55974 0.790251 2.98006 0.753008 2.35676 0.753008C2.1573 0.753008 1.94538 0.759215 1.73346 0.771629C1.70852 1.37374 1.68983 2.0193 1.68983 2.68348C1.87682 2.68969 2.05134 2.68969 2.2321 2.68969C2.66841 2.68969 3.07356 2.66486 3.52857 2.61521V3.17386L3.53481 3.16766Z" fill="white"/>
<path id="Vector_2" d="M6.98179 2.95765C6.98179 2.11345 6.93193 1.24443 6.89453 0.282293C7.49914 0.307122 8.13491 0.263672 8.67718 0.263672C10.6032 0.263672 11.5132 1.29409 11.5132 2.92041C11.5132 4.54672 10.5969 5.9682 8.78937 5.9682C8.10997 5.9682 7.50537 5.93096 6.89453 5.94958C6.93816 4.99365 6.98179 3.80184 6.98179 2.95144V2.95765ZM7.87935 5.38471C8.14737 5.46541 8.41539 5.49645 8.78314 5.49645C10.3539 5.49645 10.7652 4.24877 10.7652 2.92661C10.7652 1.67894 9.97988 0.679561 8.47149 0.679561C8.25956 0.679561 7.93544 0.698184 7.67989 0.716806C7.64249 1.49893 7.6238 2.25002 7.6238 2.95765C7.6238 4.30464 7.63003 5.07435 7.88558 5.38471H7.87935Z" fill="white"/>
<path id="Vector_3" d="M16.8414 3.16766C16.3864 3.118 15.9813 3.09317 15.545 3.09317C15.3642 3.09317 15.1897 3.09317 15.0027 3.09938C15.0027 4.32222 15.0276 5.13538 15.277 5.4085C15.4452 5.41471 15.6073 5.41471 15.7694 5.41471C16.3927 5.41471 16.9723 5.37747 17.4585 5.29677V5.94854C16.991 5.92371 16.4799 5.9175 15.9875 5.9175C15.4951 5.9175 14.8282 5.94233 14.2734 5.94854C14.3171 4.99261 14.3607 3.78218 14.3607 2.93798C14.3607 2.09379 14.3108 1.23718 14.2734 0.28125C14.8344 0.306079 15.4702 0.312286 15.9626 0.312286C16.455 0.312286 16.8851 0.306079 17.3526 0.28125V0.870947C16.8664 0.790251 16.2867 0.753008 15.6634 0.753008C15.4639 0.753008 15.252 0.759215 15.0401 0.771629C15.0152 1.37374 14.9965 2.0193 14.9965 2.68348C15.1835 2.68969 15.358 2.68969 15.5387 2.68969C15.9751 2.68969 16.3802 2.66486 16.8352 2.61521V3.17386L16.8414 3.16766Z" fill="white"/>
<path id="Vector_4" d="M23.8292 5.99889C22.6948 4.26705 21.9094 2.96972 20.8373 1.39306H20.8186C20.7999 1.79653 20.7874 2.39864 20.7874 2.9573C20.7874 3.8015 20.8124 4.98089 20.8747 5.93682H20.1953C20.2389 4.98089 20.2763 3.8015 20.2763 2.9573C20.2763 2.11311 20.2514 1.38685 20.2015 0.430923C20.5631 0.312984 20.775 0.269531 21.0243 0.269531C21.9655 1.87102 22.9005 3.32974 24.0037 4.96848H24.0224C24.0473 4.37878 24.0723 3.50355 24.0723 2.96351C24.0723 2.11931 24.0224 1.2627 23.985 0.306776H24.6644C24.6021 1.2627 24.5834 2.11931 24.5834 2.96351C24.5834 3.80771 24.6021 4.91261 24.6582 5.84992C24.2967 5.96785 24.0847 6.01131 23.8354 6.01131L23.8292 5.99889Z" fill="white"/>
<path id="Vector_5" d="M31.2414 5.93695C31.017 5.22311 30.7739 4.46582 30.5122 3.69611C30.1693 3.67749 29.8141 3.67128 29.5585 3.67128C29.3029 3.67128 28.9352 3.67749 28.5986 3.69611C28.2122 4.85067 28.0252 5.5583 28.0252 5.93695H27.084V5.85005C27.9005 4.112 28.7482 2.01392 29.3029 0.337945C29.5398 0.282079 29.7704 0.232422 30.0135 0.232422C30.9048 2.82088 31.2726 3.74577 32.1265 5.84384V5.93075H31.2476L31.2414 5.93695ZM28.742 3.28022C29.0412 3.28643 29.3403 3.28642 29.5585 3.28642C29.7767 3.28642 30.0758 3.28643 30.3688 3.28022C30.1008 2.4981 29.8328 1.72839 29.5772 1.00834H29.5585C29.2344 1.89599 28.9601 2.64086 28.742 3.28022Z" fill="white"/>
<path id="Vector_6" d="M34.5762 5.93703C34.6136 4.9811 34.6634 3.80171 34.6634 2.95752C34.6634 2.11332 34.6136 1.25671 34.5762 0.300781H35.3865C35.3241 1.25671 35.3054 2.11332 35.3054 2.95752C35.3054 3.80171 35.3241 4.9811 35.3865 5.93703H34.5762Z" fill="white"/>
<path id="Vector_7" d="M38.4642 2.95765C38.4642 2.11345 38.4144 1.24443 38.377 0.282293C38.9816 0.307122 39.6173 0.263672 40.1596 0.263672C42.0856 0.263672 42.9956 1.29409 42.9956 2.92041C42.9956 4.54672 42.0794 5.9682 40.2718 5.9682C39.5924 5.9682 38.9878 5.93096 38.377 5.94958C38.4206 4.99365 38.4642 3.80184 38.4642 2.95144V2.95765ZM39.3618 5.38471C39.6298 5.46541 39.8978 5.49645 40.2656 5.49645C41.8363 5.49645 42.2477 4.24877 42.2477 2.92661C42.2477 1.67894 41.4623 0.679561 39.9539 0.679561C39.742 0.679561 39.4179 0.698184 39.1623 0.716806C39.1249 1.49893 39.1062 2.25002 39.1062 2.95765C39.1062 4.30464 39.1124 5.07435 39.368 5.38471H39.3618Z" fill="white"/>
</g>
</svg>
