<svg width="63" height="40" viewBox="0 0 63 40" fill="none" xmlns="http://www.w3.org/2000/svg">
<g id="Group">
<path id="Vector" d="M19.4277 9.85723L21.952 4.68653L17.2461 0L17.5702 9.45375C18.2247 9.491 18.8418 9.62756 19.4277 9.85723Z" fill="#EDC484"/>
<path id="Vector_2" d="M12.0671 12.0608L9.91668 10.0682C8.77603 9.52198 7.38606 9.70199 6.43864 10.6393L4.5625 12.5201L11.1259 14.0347C11.3253 13.3209 11.6495 12.6567 12.0733 12.0608H12.0671Z" fill="#EDC484"/>
<path id="Vector_3" d="M12.5527 11.4714C13.0389 10.95 13.6061 10.503 14.2419 10.1616L12.1351 4.97852L10.7514 6.35033C9.91618 7.18832 9.68555 8.37392 10.0159 9.41675L12.5527 11.4714Z" fill="#EDC484"/>
<path id="Vector_4" d="M21.8278 11.4714L24.3647 9.41675C24.7013 8.36771 24.4706 7.18832 23.6229 6.35033L22.2454 4.97852L20.1387 10.1616C20.7744 10.503 21.3416 10.9438 21.8278 11.4714Z" fill="#EDC484"/>
<path id="Vector_5" d="M0 17.0576C0 17.0576 0.00623303 17.0514 0.0186991 17.0452C0.0186991 17.0452 0.0311652 17.0328 0.0373982 17.0328C0.0560973 17.0204 0.0810294 17.0017 0.112195 16.9831C0.118428 16.9831 0.130894 16.9707 0.137127 16.9645C0.149593 16.9583 0.168292 16.9459 0.180758 16.9397C0.324118 16.8528 0.560973 16.7162 0.878858 16.561C1.14064 16.4307 1.45853 16.2879 1.83251 16.1327C2.0382 16.052 2.25636 15.9651 2.49321 15.8782C2.51815 15.8658 2.54931 15.8596 2.57424 15.8472C2.71137 15.7975 2.8485 15.7541 2.99186 15.7044C3.01055 15.7044 3.02302 15.692 3.04172 15.6858C3.08535 15.6734 3.12898 15.661 3.16638 15.6423C3.4905 15.543 3.84578 15.4375 4.21976 15.3444C4.21976 15.3444 4.226 15.3444 4.23223 15.3444C4.23846 15.3444 4.2447 15.3444 4.25716 15.3444C4.49402 15.2885 4.7371 15.2327 4.98643 15.1768C5.17342 15.1396 5.36664 15.1023 5.5661 15.0651C5.6035 15.0589 5.63466 15.0526 5.67206 15.0464C5.68453 15.0464 5.70322 15.0464 5.71569 15.0402C5.72816 15.0402 5.74062 15.0402 5.75309 15.0402C5.75932 15.0402 5.76556 15.0402 5.77802 15.0402C5.78425 15.0402 5.79049 15.0402 5.79672 15.0402C5.80295 15.0402 5.80919 15.0402 5.81542 15.0402C5.81542 15.0402 5.82165 15.0402 5.82789 15.0402C5.82789 15.0402 5.87152 15.034 5.89645 15.0278C5.90891 15.0278 5.92761 15.0278 5.94008 15.0216H5.95255C6.35769 14.9533 6.77531 14.8975 7.21785 14.854C7.23655 14.854 7.25525 14.854 7.27395 14.854C7.27395 14.854 7.28018 14.854 7.28641 14.854H7.29888C7.31758 14.854 7.33628 14.854 7.35498 14.854C7.37368 14.854 7.38614 14.854 7.40484 14.854H7.41731H7.42977C7.46094 14.854 7.48587 14.854 7.51704 14.8478C7.5295 14.8478 7.53574 14.8478 7.5482 14.8478C7.61677 14.8478 7.68533 14.8354 7.75389 14.8292C7.77259 14.8292 7.79129 14.8292 7.80999 14.8292C7.85985 14.8292 7.90349 14.823 7.95335 14.8168C7.97205 14.8168 7.99075 14.8168 8.01568 14.8168C8.07178 14.8168 8.13411 14.8106 8.1902 14.8044C8.99427 14.7547 9.84819 14.7485 10.752 14.7919L4.26963 12.8242L0 17.0576Z" fill="#EDC484"/>
<path id="Vector_6" d="M16.8037 9.45375L17.1278 0L12.4219 4.68653L14.9463 9.85723C15.5259 9.62756 16.1492 9.491 16.8037 9.45375Z" fill="#EDC484"/>
<path id="Vector_7" d="M26.3285 20.5394C26.4095 20.5394 26.4906 20.5394 26.5716 20.5332C26.5716 20.5332 26.5716 20.5332 26.5778 20.5332C26.4906 20.5332 26.4095 20.5332 26.3223 20.5394H26.3285Z" fill="#525855"/>
<path id="Vector_8" d="M25.1684 13.5746C25.1684 13.5746 25.1684 13.5684 25.1621 13.5684C25.1621 13.5684 25.1621 13.5746 25.1621 13.5809L25.1684 13.5746Z" fill="#8D7153"/>
<path id="Vector_9" d="M28.3609 16.3628C28.311 16.3939 28.2612 16.4063 28.2051 16.4001C28.2986 16.5739 28.3921 16.7539 28.4731 16.9339C28.4918 16.7973 28.5105 16.6608 28.5292 16.5242C28.5354 16.4001 28.5479 16.2759 28.5541 16.1518C28.5666 15.9531 28.5666 15.7669 28.5479 15.5683C28.5292 15.3883 28.5292 15.2703 28.5105 15.0469C28.5105 15.0531 28.5105 15.0655 28.5105 15.0717C28.4918 15.1276 28.4295 15.1524 28.3858 15.1338C28.4295 15.1648 28.4606 15.2083 28.4606 15.2641C28.4606 15.32 28.4295 15.3759 28.3858 15.4007C28.3547 15.4193 28.3235 15.4255 28.2986 15.4255C28.2986 15.4255 28.2986 15.4379 28.2923 15.4379C28.3547 15.5683 28.336 15.7173 28.23 15.8228C28.2425 15.829 28.2549 15.8414 28.2674 15.8476C28.2986 15.8724 28.311 15.9097 28.3235 15.9469C28.3235 15.9594 28.3235 15.9718 28.3235 15.9842C28.3796 16.0152 28.4295 16.0773 28.4482 16.1394C28.4731 16.2139 28.4295 16.3008 28.3671 16.3442L28.3609 16.3628Z" fill="#8D7153"/>
<path id="Vector_10" d="M29.0653 15.5115C29.0154 15.5115 28.9718 15.4991 28.9344 15.4805C28.897 15.6419 28.8596 15.8032 28.8409 15.9646C28.8409 16.0577 28.8284 16.1571 28.8222 16.2502C28.8159 16.4426 28.7972 16.6288 28.791 16.8213C28.9219 16.6226 29.0902 16.4426 29.2086 16.2316C29.2086 16.2316 29.1775 16.2626 29.1588 16.275C29.1588 16.275 29.1401 16.3247 29.1276 16.3495C29.059 16.4302 28.9094 16.3805 28.8907 16.2812C28.8783 16.2378 28.8783 16.2005 28.897 16.1571C28.897 16.1509 28.9094 16.1447 28.9094 16.1322C28.9094 16.1322 28.9157 16.1198 28.9219 16.1198C28.9219 16.1198 28.9281 16.1074 28.9344 16.1074C28.9344 16.095 28.9406 16.0826 28.9468 16.0764C28.9718 16.0391 28.9967 16.0205 29.0341 16.0081C28.9842 15.8653 29.0029 15.7101 29.1089 15.5736C29.1214 15.5612 29.1276 15.5487 29.1401 15.5363C29.1338 15.5301 29.1338 15.5177 29.1401 15.5115C29.1151 15.5115 29.0964 15.5177 29.0715 15.5177L29.0653 15.5115Z" fill="#8D7153"/>
<path id="Vector_11" d="M28.3164 18.3299C28.3289 18.1623 28.3476 17.9947 28.36 17.8457C28.3538 17.9016 28.3413 18.0195 28.3413 18.0195C28.3351 18.1188 28.3226 18.2243 28.3164 18.3237V18.3299Z" fill="white"/>
<g id="Group_2">
<path id="Vector_12" d="M29.4763 12.1794C29.4763 12.1794 29.4327 12.167 29.414 12.167C29.414 12.1608 29.4015 12.1484 29.3953 12.1422C29.3579 12.1111 29.3142 12.0925 29.2706 12.0925C29.2207 12.0925 29.1833 12.1236 29.1709 12.1732C29.1646 12.1918 29.1709 12.2105 29.1709 12.2291C29.1709 12.2353 29.1709 12.2415 29.1709 12.2477C29.1584 12.2601 29.1459 12.2787 29.1335 12.2974C29.121 12.2725 29.0898 12.2477 29.0587 12.2539C29.0337 12.2539 29.015 12.2725 29.0088 12.2974C29.0026 12.3222 29.0088 12.3408 29.0088 12.3594C29.0088 12.3594 29.0088 12.3719 29.0088 12.3781C28.9714 12.3532 28.9216 12.3346 28.8717 12.3284C28.8031 12.3222 28.7346 12.3284 28.6722 12.3594C28.6598 12.3408 28.6473 12.316 28.6348 12.2974C28.6348 12.198 28.5725 12.0987 28.4852 12.0615C28.3481 11.9994 28.211 12.0118 28.0926 12.1049C28.0614 12.1298 28.0365 12.1608 28.024 12.198C28.0115 12.198 27.9928 12.198 27.9804 12.198C27.9243 12.2105 27.9243 12.2974 27.9804 12.3098C27.9866 12.3098 27.9928 12.3098 27.9991 12.3098C27.9991 12.3098 27.9991 12.316 27.9991 12.3222C27.943 12.3098 27.8806 12.3222 27.8245 12.3532C27.7934 12.3408 27.7622 12.3408 27.731 12.3532C27.7123 12.3656 27.6936 12.3843 27.6812 12.4029C27.6625 12.4339 27.6625 12.465 27.6812 12.496C27.6687 12.5146 27.6562 12.5394 27.6438 12.5643C27.6001 12.5519 27.5565 12.5519 27.5067 12.5581C27.5067 12.5519 27.5129 12.5395 27.5191 12.527C27.5378 12.465 27.5316 12.3781 27.4693 12.3408C27.4319 12.3222 27.4007 12.3284 27.3758 12.347H27.3695C27.3571 12.347 27.3508 12.3532 27.3384 12.3594C27.3197 12.3719 27.301 12.3905 27.2947 12.4153C27.2573 12.3656 27.195 12.3284 27.089 12.3036C26.8397 12.2477 26.6839 12.3222 26.5904 12.4091L26.5842 12.4029C26.6029 12.3843 26.6153 12.3532 26.6091 12.3284C26.6091 12.3098 26.6029 12.285 26.5842 12.2725C26.553 12.2477 26.5218 12.2477 26.4907 12.2725C26.472 12.285 26.472 12.3036 26.4657 12.3284C26.4657 12.3532 26.4657 12.3843 26.4844 12.3967C26.4657 12.3967 26.4533 12.4029 26.4346 12.4153C26.3411 12.4525 26.26 12.5208 26.1915 12.6015C26.179 12.5829 26.1666 12.5581 26.1416 12.5395C26.0481 12.465 25.9422 12.4588 25.8362 12.496C25.8362 12.496 25.8424 12.4898 25.8487 12.4836C25.8674 12.4339 25.8487 12.4091 25.8237 12.3719C25.7988 12.3408 25.7427 12.347 25.7178 12.3719C25.6928 12.3967 25.6866 12.4525 25.7178 12.4774C25.7302 12.4836 25.7365 12.496 25.7489 12.5022C25.7489 12.5022 25.7489 12.5022 25.7552 12.5022C25.7676 12.5022 25.7801 12.5022 25.7926 12.5022C25.7739 12.5146 25.7489 12.527 25.7302 12.5395C25.7178 12.527 25.7053 12.527 25.6928 12.527C25.6305 12.527 25.6118 12.5953 25.6367 12.6326C25.5744 12.707 25.5308 12.794 25.5121 12.8871C25.5059 12.8871 25.4934 12.8933 25.4872 12.8995C25.4747 12.9057 25.456 12.9181 25.456 12.9429C25.456 12.9678 25.456 12.9864 25.4747 13.005C25.4747 13.005 25.4809 13.0112 25.4872 13.0174C25.4872 13.0174 25.4872 13.0174 25.4872 13.0236C25.4872 13.036 25.4996 13.0485 25.5121 13.0609C25.5121 13.0795 25.5183 13.1043 25.5308 13.1229C25.5308 13.1229 25.5308 13.1229 25.5308 13.1291C25.5121 13.1167 25.4934 13.1043 25.4622 13.0981C25.3937 13.0733 25.3189 13.0795 25.2565 13.1167C25.1194 13.1974 25.0882 13.4023 25.1755 13.5264C25.1443 13.4954 25.082 13.4892 25.0508 13.5264C25.0259 13.5512 25.0197 13.5885 25.0321 13.6257C25.0197 13.6319 25.0134 13.6444 25.0072 13.6568C24.9698 13.7188 24.9823 13.812 25.0384 13.8616C25.0695 13.8926 25.1069 13.9175 25.1506 13.9299C25.1506 13.9671 25.1506 13.9982 25.1693 14.0292C25.1693 14.0354 25.1568 14.0478 25.1568 14.054C25.1443 14.0354 25.1319 14.0106 25.1132 13.992C25.1256 13.9423 25.1007 13.8864 25.0321 13.8864C24.9823 13.8864 24.9511 13.9237 24.9511 13.9671C24.9386 13.9795 24.9199 13.992 24.9075 14.0106C24.8825 14.0168 24.8638 14.023 24.8389 14.0416C24.8576 14.0106 24.8701 13.9733 24.8514 13.9299C24.8451 13.9051 24.8327 13.8864 24.814 13.8616C24.814 13.8616 24.8078 13.8554 24.8015 13.8554C24.7828 13.8368 24.7579 13.8244 24.7392 13.8182C24.6956 13.812 24.6519 13.8182 24.6208 13.8492C24.6145 13.8554 24.6083 13.8678 24.6021 13.8802C24.5896 13.8926 24.5834 13.9113 24.5771 13.9299C24.5647 13.992 24.5896 14.0602 24.6457 14.0975C24.6457 14.0975 24.6519 14.0975 24.6582 14.0975C24.6083 14.0975 24.5584 14.1099 24.5148 14.1409C24.4712 14.172 24.4462 14.2216 24.4587 14.2713C24.4712 14.3085 24.4961 14.3334 24.5273 14.3458C24.5023 14.3768 24.5023 14.4141 24.5086 14.4513H24.5023C24.5023 14.4513 24.4462 14.4513 24.4213 14.4637C24.4088 14.4637 24.5397 14.8051 24.7205 14.8051C24.6831 14.8175 24.6457 14.8548 24.6395 14.892C24.6332 14.9479 24.6145 15.01 24.6519 15.0596C24.6644 15.0782 24.6831 15.0969 24.7018 15.1093C24.6831 15.1093 24.6644 15.1217 24.6519 15.1279C24.6145 15.1527 24.5896 15.1838 24.5896 15.2334C24.5896 15.2769 24.6145 15.3203 24.6519 15.339C24.6831 15.3576 24.7143 15.3638 24.7454 15.3576C24.7828 15.4693 24.8701 15.5562 24.976 15.5872C24.9636 15.6121 24.9573 15.6307 24.9573 15.6617C24.9573 15.6741 24.9573 15.6804 24.9573 15.6928H24.9449C24.895 15.7611 24.8701 15.8542 24.9137 15.9224C24.9449 15.9659 24.976 15.9907 25.0134 16.0093C25.0321 16.0714 25.082 16.1211 25.1319 16.1335C25.2441 16.1521 25.3625 16.1025 25.4124 15.9969C25.4373 15.9783 25.4685 15.9535 25.4872 15.9224C25.4934 15.9224 25.4996 15.9224 25.5121 15.9224C25.4996 15.9535 25.4996 15.9907 25.5059 16.0218C25.5059 16.2018 25.6866 16.3445 25.8611 16.3383C25.9359 16.3383 26.017 16.2825 26.0481 16.2142C26.0606 16.2142 26.0793 16.2142 26.0918 16.2142C26.0606 16.2452 26.0419 16.2825 26.0419 16.3321C26.0045 16.3445 25.9796 16.3756 25.9609 16.4066C25.9235 16.4935 25.9359 16.6239 26.0232 16.6797C26.0793 16.7108 26.1541 16.717 26.2102 16.7046C26.2912 16.6859 26.3598 16.6177 26.3847 16.537C26.3909 16.5432 26.3972 16.5494 26.4034 16.5556C26.4221 16.568 26.4346 16.5866 26.4533 16.599C26.4595 16.599 26.4657 16.599 26.472 16.6052C26.4969 16.6363 26.5281 16.6549 26.5717 16.6549C26.6278 16.6549 26.6777 16.6363 26.7213 16.6115C26.7275 16.6115 26.7338 16.6052 26.74 16.599C26.7774 16.6115 26.8273 16.6177 26.8647 16.6177C26.902 16.6177 26.9457 16.6052 26.9831 16.5928C27.0205 16.6425 27.0641 16.6859 27.1077 16.717C27.2137 16.7853 27.3695 16.8473 27.488 16.7728C27.5129 16.7542 27.5378 16.7356 27.5503 16.717C27.6375 16.7666 27.7435 16.7977 27.8432 16.7604C27.8993 16.7356 27.9554 16.7108 27.9804 16.6487C27.9928 16.6301 27.9991 16.599 28.0053 16.5742C28.0178 16.537 28.0178 16.4935 28.0053 16.4563C27.9866 16.3756 27.918 16.3135 27.837 16.3135C27.8245 16.3135 27.8121 16.3135 27.7996 16.3135C27.7996 16.3135 27.7996 16.3135 27.8058 16.3135C27.8682 16.2701 27.8993 16.1956 27.8931 16.1273C27.9118 16.1397 27.9305 16.1459 27.9554 16.1583C27.9554 16.1645 27.9554 16.1707 27.9554 16.1769C27.9554 16.1831 27.9617 16.1894 27.9617 16.2018C28.0115 16.419 28.0863 16.6363 28.1611 16.8473C28.2733 17.1577 28.3356 17.4494 28.3606 17.7722C28.3606 17.7722 28.3606 17.7722 28.3606 17.7784C28.3606 17.7784 28.3606 17.7908 28.3606 17.8033C28.3543 17.8591 28.3419 17.9771 28.3419 17.9833C28.3356 18.0826 28.3232 18.1881 28.3169 18.2874C28.2796 18.7282 28.2546 19.2123 28.2609 19.591C28.2609 19.6344 28.2546 19.6779 28.2484 19.7213C28.2422 19.8268 28.1549 19.9075 28.0489 19.9075H28.0427C28.0302 19.8703 28.0053 19.8393 27.9617 19.8144C27.943 19.802 27.9243 19.8144 27.918 19.8268C27.8931 19.8082 27.8557 19.8144 27.8495 19.8517C27.8495 19.8703 27.8495 19.8827 27.8432 19.9013C27.8308 19.8641 27.8121 19.8206 27.7809 19.7958C27.7435 19.7648 27.6749 19.7586 27.6562 19.8144C27.6562 19.8206 27.6562 19.8331 27.6562 19.8455C27.65 19.8579 27.6438 19.8703 27.6438 19.8827V19.9013C27.6438 19.9013 27.6002 19.8641 27.5628 19.8579C27.5565 19.8517 27.5503 19.8455 27.5378 19.8393C27.5254 19.8268 27.5067 19.8144 27.4942 19.8082C27.4568 19.7896 27.4319 19.8331 27.4506 19.8579C27.4506 19.8579 27.4506 19.8641 27.4443 19.8703C27.4132 19.8268 27.3695 19.771 27.3134 19.771C27.2823 19.771 27.2573 19.802 27.2636 19.8268C27.2636 19.8517 27.276 19.8703 27.2947 19.8827C27.2573 19.8393 27.2137 19.802 27.1638 19.7834C27.1264 19.771 27.1015 19.8082 27.1264 19.8331C27.2012 19.92 27.276 19.9882 27.3259 20.0876C27.3134 20.0876 27.2947 20.0938 27.2885 20.1062C27.2511 19.9944 27.1888 19.8951 27.0766 19.8951C27.0392 19.8951 27.0205 19.9448 27.0516 19.9696C27.0953 20.0007 27.1389 20.0131 27.1701 20.0627C27.2012 20.1062 27.2199 20.1496 27.2386 20.1931C27.2386 20.2055 27.2511 20.2241 27.2573 20.2365C27.2449 20.2365 27.2386 20.2365 27.2262 20.2303C27.2137 20.2055 27.195 20.1807 27.1763 20.162C27.1264 20.0938 27.0579 19.9882 26.9706 19.9758C26.9519 19.9758 26.9332 19.982 26.9332 20.0007C26.9145 20.0007 26.9021 20.0131 26.8958 20.0255C26.8834 20.0255 26.8584 20.0193 26.846 20.0255C26.8273 20.0255 26.8273 20.0565 26.8397 20.0627C26.8709 20.0938 26.9145 20.1062 26.9457 20.1372C26.9644 20.1558 26.9768 20.1807 26.9955 20.1993C26.9955 20.2179 26.9955 20.2365 26.9955 20.2614C26.9581 20.1993 26.9145 20.1558 26.8522 20.1248C26.8023 20.0689 26.74 20.0131 26.6777 20.0007C26.659 20.0007 26.634 20.0007 26.6216 20.0193H26.6091C26.5904 20.0193 26.5904 20.0503 26.6091 20.0565C26.6091 20.0565 26.6153 20.0565 26.6216 20.0565C26.6216 20.0627 26.6216 20.0689 26.6216 20.0751C26.6278 20.0876 26.6403 20.1062 26.659 20.1186C26.634 20.1062 26.6029 20.1 26.5717 20.1186C26.5218 20.0876 26.472 20.0565 26.4221 20.0255C26.3722 19.9944 26.3286 19.9634 26.2787 19.9386C26.2787 19.9386 26.2787 19.9386 26.2725 19.9386C26.2663 19.9386 26.2538 19.9262 26.2476 19.9262C25.805 19.6593 25.375 19.3985 24.9449 19.1565C24.9137 19.1378 24.8825 19.1192 24.8514 19.1068C24.8078 19.082 24.7641 19.0571 24.7267 19.0323C24.4151 18.8585 24.1034 18.6909 23.798 18.5295C23.5424 18.393 23.2869 18.2626 23.0313 18.1322C23.1248 17.915 23.1996 17.6915 23.2682 17.4681L23.4365 16.7046C23.4926 16.3694 23.53 16.0342 23.53 15.6928C23.53 15.3762 23.4988 15.0658 23.449 14.7679L23.2931 14.0168C23.0937 13.303 22.7695 12.6388 22.3457 12.0429L24.4961 10.0565C25.6367 9.51028 27.0267 9.6965 27.9679 10.6338L29.5075 12.1608L29.4763 12.1794Z" fill="#8D7153"/>
<path id="Vector_13" d="M31.6526 14.3457C31.6526 14.3457 31.6276 14.3767 31.6152 14.3892C31.665 14.445 31.6775 14.5319 31.6463 14.6002C31.7398 14.6188 31.8209 14.6747 31.8769 14.7554C31.9206 14.805 31.9081 14.9168 31.852 14.9602C31.8022 15.0037 31.7461 15.0223 31.6837 15.0409C31.6962 15.0409 31.7024 15.0471 31.7149 15.0533C31.7648 15.0782 31.7897 15.1278 31.8084 15.1775C31.8396 15.1589 31.8707 15.1464 31.9081 15.1402C31.9767 15.134 32.039 15.1651 32.0889 15.2085C32.1637 15.2706 32.1325 15.3947 32.0577 15.4382C31.9642 15.4941 31.8396 15.4754 31.7648 15.4009C31.7461 15.4258 31.7274 15.4506 31.7024 15.463C31.7336 15.5313 31.7274 15.612 31.665 15.6803C31.6214 15.7299 31.5591 15.7486 31.4905 15.7548C31.4095 15.7548 31.3409 15.7237 31.2786 15.6741C31.2599 15.6554 31.2412 15.6368 31.2225 15.612C31.21 15.612 31.2038 15.612 31.1913 15.6058C31.1913 15.6058 31.1975 15.6182 31.1975 15.6244C31.2038 15.6368 31.21 15.6617 31.1975 15.6741C31.1851 15.7237 31.1228 15.7299 31.0978 15.6927C31.0916 15.6865 31.0729 15.6617 31.0604 15.6492C31.048 15.6679 31.0293 15.6865 31.0043 15.6927C30.9607 15.6989 30.9233 15.6679 30.9233 15.6306C30.9108 15.643 30.8921 15.6492 30.8797 15.6492C30.8734 15.6679 30.8547 15.6865 30.8298 15.7051C30.8173 15.7051 30.8111 15.7175 30.7986 15.7175C30.8173 15.7299 30.8298 15.7424 30.8423 15.761C30.861 15.8044 30.861 15.8603 30.8298 15.8913C30.8049 15.9162 30.7737 15.9224 30.7425 15.9224C30.7425 15.9348 30.7363 15.9472 30.7301 15.9596C30.7301 15.9844 30.7176 16.0155 30.6927 16.0403C30.6927 16.0403 30.6927 16.0403 30.6927 16.0465C30.6927 16.0465 30.6864 16.0527 30.6864 16.0589C30.6864 16.0775 30.6864 16.0962 30.674 16.1148C30.6677 16.1334 30.649 16.1396 30.6366 16.1396C30.5742 16.2079 30.4808 16.2451 30.381 16.2389C30.3436 16.2389 30.3062 16.2265 30.2688 16.2079H30.2626L30.2003 16.1831C30.1379 16.2389 30.0569 16.27 29.9759 16.2762H29.9696C29.9759 16.3383 29.9572 16.4065 29.8948 16.4686C29.739 16.63 29.5458 16.4252 29.4274 16.2824C29.4149 16.2824 29.4087 16.2824 29.3962 16.2824C29.365 16.2824 29.3339 16.27 29.3027 16.2638C29.2902 16.2638 29.2715 16.2638 29.2591 16.2638C29.1406 16.5431 28.9911 16.8038 28.8789 17.0893C28.7355 17.4556 28.7854 17.8839 28.7978 18.2625C28.8103 18.6846 28.8352 19.1067 28.8228 19.5288C28.8165 19.7771 29.0098 19.9882 29.2591 19.9944L30.007 20.0254C30.0195 19.9944 30.0382 19.9695 30.0631 19.9571C30.0444 19.9137 30.0195 19.8764 30.0008 19.8392C29.9821 19.8144 30.0195 19.7833 30.0382 19.8081C30.0382 19.8081 30.0444 19.8144 30.0444 19.8206C30.0756 19.8206 30.1068 19.833 30.1255 19.8578C30.1379 19.8454 30.1566 19.8392 30.1691 19.8578C30.2003 19.8888 30.2252 19.9323 30.2439 19.9757C30.2439 19.9633 30.2501 19.9509 30.2564 19.9385C30.2314 19.8764 30.1442 19.7833 30.2314 19.7461C30.2501 19.7399 30.2751 19.7461 30.2875 19.7585C30.3062 19.7709 30.3187 19.7957 30.3312 19.8144C30.3312 19.8144 30.3561 19.8144 30.3748 19.8268C30.4247 19.8826 30.4434 19.9447 30.4434 20.013C30.4434 20.0068 30.4558 19.9944 30.4621 19.9882C30.4434 19.9199 30.3997 19.8268 30.4247 19.7709C30.4309 19.7523 30.4558 19.7461 30.4683 19.7523C30.4995 19.7585 30.5119 19.7833 30.5244 19.8081C30.568 19.8081 30.6054 19.8764 30.6179 19.9261C30.6303 19.9261 30.6366 19.9385 30.6428 19.9447C30.6553 19.9261 30.674 19.9075 30.6927 19.9013C30.7176 19.8951 30.7425 19.9137 30.7425 19.9385C30.7425 19.9757 30.7238 20.0254 30.6989 20.0689C30.6989 20.0751 30.6989 20.0875 30.6989 20.0999C30.7238 20.0564 30.755 20.013 30.7924 19.9757C30.8173 19.9509 30.861 19.9757 30.8423 20.013C30.7986 20.0813 30.7488 20.1371 30.7051 20.1992C30.7238 20.1868 30.7425 20.1744 30.7612 20.1682C30.7924 20.1309 30.8298 20.1061 30.8734 20.0999C30.8921 20.0999 30.9046 20.1061 30.9108 20.1247C30.9108 20.1247 30.9233 20.1247 30.9295 20.1247C30.9482 20.1061 30.9732 20.0937 30.9981 20.0875C31.0417 20.0813 31.0791 20.1123 31.0542 20.1558C31.048 20.1744 31.0355 20.193 31.0168 20.2054C31.023 20.2054 31.0293 20.2054 31.0417 20.2054C31.0417 20.2054 31.048 20.2054 31.0542 20.2054C31.0791 20.193 31.1041 20.1868 31.129 20.1868C31.2038 20.1496 31.2723 20.1123 31.3471 20.0751L32.7246 18.6908L33.4788 17.9397C33.4788 17.9397 33.4788 17.9397 33.4851 17.9335C33.5038 17.9211 33.5162 17.9087 33.5349 17.8901H33.5412L34.3141 17.1142C34.3328 17.108 34.339 17.0893 34.3452 17.0831H34.3515L31.6214 14.3519L31.6526 14.3457Z" fill="#8D7153"/>
</g>
<path id="Vector_14" d="M31.0654 20.2168C31.0654 20.2168 31.0467 20.223 31.0405 20.2292C31.0218 20.2416 30.9969 20.2478 30.9782 20.2602C30.9657 20.2602 30.9532 20.2726 30.9408 20.2788C30.9283 20.2851 30.9096 20.2913 30.8972 20.2975C30.866 20.3099 30.8348 20.3223 30.7974 20.3409H30.785C30.4733 20.4651 30.1679 20.5582 29.8749 20.6265C29.8562 20.6265 29.8313 20.6327 29.8126 20.6389C29.8126 20.6389 29.8001 20.6389 29.7939 20.6389C29.769 20.6389 29.7378 20.6513 29.7129 20.6575C29.6942 20.6575 29.6755 20.6637 29.6568 20.6699C29.6505 20.6699 29.6381 20.6699 29.6318 20.6699C29.4698 20.7009 29.314 20.7196 29.1581 20.732C28.7031 20.7692 28.298 20.7506 27.9676 20.7009C27.6871 20.6637 27.4627 20.6078 27.3132 20.5644C27.3132 20.5644 27.3007 20.5644 27.2945 20.5644C27.2945 20.5644 27.2882 20.5644 27.282 20.5644C27.1449 20.5271 27.0763 20.4961 27.0763 20.4961L27.0264 20.5023C27.0264 20.5023 26.9703 20.5023 26.9454 20.5023C26.8581 20.5023 26.7709 20.5147 26.6836 20.5209C26.6525 20.5209 26.6275 20.5209 26.5964 20.5209C25.8172 20.5768 25.0693 20.6575 24.3587 20.7506C23.2929 20.8934 22.308 21.0734 21.3918 21.2844C18.8923 21.8741 17.0411 23.0659 15.6886 24.3571C15.6512 24.3943 15.6138 24.4315 15.5764 24.4688C13.2016 26.8089 12.4349 29.4284 12.4349 29.4284L16.5175 33.4942C16.5923 33.4942 16.6671 33.4942 16.7419 33.488C16.6671 33.488 16.5923 33.488 16.5175 33.4942C13.7501 33.5936 11.207 34.2515 9.1875 35.2944C11.7555 34.8412 14.4606 34.5929 17.2593 34.5929C20.0579 34.5929 22.7693 34.8412 25.3311 35.2944C23.2866 34.2391 20.7124 33.5749 17.9013 33.488L23.6481 27.7649C24.8449 26.5731 24.8449 24.6364 23.6481 23.4508C24.8449 24.6426 26.7584 24.6674 27.9552 23.4756L31.3833 20.043C31.2774 20.0988 31.1714 20.1485 31.0717 20.1982L31.0654 20.2168Z" fill="#AE8D68"/>
<path id="Vector_15" d="M10.7462 23.4705C10.7462 23.4705 15.3151 19.355 22.6887 20.2364H22.695C22.7511 20.2427 22.8072 20.2489 22.8695 20.2613C23.0253 20.2799 23.1749 20.3047 23.3307 20.3296C23.3619 20.3296 23.3868 20.3358 23.418 20.342C23.711 20.3854 23.9914 20.4227 24.2657 20.4537C24.3779 20.4661 24.4838 20.4785 24.596 20.4909H24.6334C25.0698 20.5282 25.4874 20.5468 25.8925 20.5468C26.0359 20.5468 26.1792 20.5468 26.3226 20.5406C26.4099 20.5406 26.4971 20.5344 26.5781 20.5344C26.5781 20.5344 26.6342 20.5344 26.6654 20.5344C26.7527 20.5282 26.8399 20.522 26.9272 20.5158C26.9521 20.5158 26.9833 20.5158 27.0082 20.5158H27.0581V20.5096C20.3202 17.8901 14.8164 17.7783 10.8522 18.4053C10.7899 18.4177 10.7275 18.4239 10.659 18.4363C9.54327 18.6225 8.55845 18.8646 7.70453 19.1253C7.69829 19.1253 7.68583 19.1253 7.67959 19.1315C7.64843 19.1377 7.6235 19.1502 7.59233 19.1564C7.5487 19.1688 7.50507 19.1812 7.46767 19.1936C7.40534 19.2122 7.33678 19.2371 7.27445 19.2557C7.24328 19.2681 7.21212 19.2743 7.18095 19.2867C7.06876 19.324 6.9628 19.3612 6.85683 19.3985C6.8319 19.4047 6.8132 19.4109 6.7945 19.4233C6.76334 19.4357 6.73841 19.4419 6.70724 19.4543C5.63516 19.8392 4.84357 20.224 4.35116 20.4909C4.27636 20.5282 4.21403 20.5654 4.1517 20.6027C4.1517 20.6027 4.13923 20.6027 4.13923 20.6089C4.02081 20.6772 3.93354 20.733 3.87121 20.7703C3.85251 20.7827 3.84005 20.7889 3.82758 20.7951C3.80888 20.8075 3.79642 20.8137 3.78395 20.8199C3.77772 20.8199 3.77148 20.8261 3.77148 20.8261L6.43299 23.4767C7.57363 24.6126 9.37498 24.6623 10.578 23.6256C10.6154 23.5946 10.6528 23.5574 10.6901 23.5201C10.7088 23.5077 10.7213 23.4891 10.74 23.4767L10.7462 23.4705Z" fill="#A8C6C0"/>
<path id="Vector_16" d="M3.83331 20.7883C3.83331 20.7883 3.85825 20.7697 3.87695 20.7635C3.93928 20.7262 4.02654 20.6704 4.14497 20.6021C4.14497 20.6021 4.15743 20.6021 4.15743 20.5959C4.21976 20.5649 4.28209 20.5276 4.35689 20.4842C4.84307 20.2172 5.64089 19.8324 6.71298 19.4475C6.73791 19.4351 6.76907 19.4289 6.80024 19.4165C6.81894 19.4103 6.84387 19.4041 6.86257 19.3917C6.96853 19.3544 7.08072 19.3172 7.18669 19.2799C7.21785 19.2675 7.24902 19.2613 7.28018 19.2489C7.34251 19.2303 7.41108 19.2054 7.47341 19.1868C7.51704 19.1744 7.56067 19.162 7.59807 19.1496C7.62923 19.1434 7.65416 19.131 7.68533 19.1248C7.69156 19.1248 7.70403 19.1248 7.71026 19.1185C8.56419 18.8578 9.55524 18.6158 10.6647 18.4295C10.727 18.4171 10.7894 18.4109 10.8579 18.3985C14.8222 17.7716 20.3259 17.8833 27.0638 20.5028C26.8394 20.36 26.615 20.2172 26.3907 20.0807C26.3408 20.0496 26.2972 20.0186 26.2473 19.9938C26.2411 19.9938 26.2286 19.9814 26.2224 19.9814C25.7861 19.7144 25.3497 19.4537 24.9197 19.2117C24.8885 19.193 24.8573 19.1744 24.8262 19.162C24.7825 19.1372 24.7389 19.1123 24.6953 19.0875C24.3836 18.9137 24.072 18.7461 23.7666 18.5847C23.511 18.4482 23.2554 18.3178 22.9999 18.1874C22.763 18.0695 22.5199 17.9578 22.2831 17.846C21.9714 17.6971 21.666 17.5605 21.3606 17.4239C17.7766 15.8349 14.5541 15.0838 11.7617 14.8417C10.4902 14.73 9.31215 14.7113 8.2276 14.7734C8.1715 14.7734 8.10917 14.7796 8.05308 14.7858C8.03438 14.7858 8.01568 14.7858 7.99075 14.7858C7.94088 14.7858 7.89725 14.792 7.84739 14.7982C7.82869 14.7982 7.80999 14.7982 7.79129 14.7982C7.72273 14.7982 7.65416 14.8107 7.5856 14.8169C7.57313 14.8169 7.5669 14.8169 7.55444 14.8169C7.52327 14.8169 7.49834 14.8169 7.46717 14.8231H7.45471H7.44224C7.42354 14.8231 7.41108 14.8231 7.39238 14.8231C7.37368 14.8231 7.35498 14.8231 7.33628 14.8231H7.32381C7.32381 14.8231 7.31758 14.8231 7.31135 14.8231C7.29265 14.8231 7.27395 14.8231 7.25525 14.8231C6.81894 14.8665 6.39509 14.9224 5.98994 14.9907H5.98371C5.98371 14.9907 5.95255 14.9969 5.94008 14.9969C5.91515 14.9969 5.89645 15.0031 5.87152 15.0093C5.87152 15.0093 5.86528 15.0093 5.85905 15.0093C5.85282 15.0093 5.84658 15.0093 5.84035 15.0093C5.83412 15.0093 5.82789 15.0093 5.82165 15.0093C5.81542 15.0093 5.80919 15.0093 5.79672 15.0093C5.78425 15.0093 5.77179 15.0093 5.75932 15.0093C5.74686 15.0093 5.72816 15.0093 5.71569 15.0155C5.67829 15.0155 5.64713 15.0279 5.60973 15.0341C5.41027 15.0714 5.22328 15.1086 5.03006 15.1459C4.78074 15.2017 4.53765 15.2576 4.30079 15.3135C4.28833 15.3135 4.28209 15.3135 4.27586 15.3135C4.27586 15.3135 4.26963 15.3135 4.26339 15.3135C3.88941 15.4066 3.54036 15.5059 3.21001 15.6114C3.16638 15.6238 3.12275 15.6362 3.08535 15.6549C3.06665 15.6549 3.05419 15.6673 3.03549 15.6735C2.89213 15.7231 2.74877 15.7666 2.61787 15.8162C2.59294 15.8287 2.56178 15.8349 2.53684 15.8473C2.29999 15.9342 2.08183 16.0149 1.87614 16.1018C1.50216 16.2508 1.18428 16.3997 0.922489 16.5301C0.604604 16.6853 0.367749 16.8218 0.224389 16.9087C0.20569 16.9212 0.193224 16.9274 0.180758 16.9336C0.174525 16.9336 0.162059 16.946 0.155826 16.9522C0.124661 16.9708 0.0997285 16.9894 0.0810294 17.0018C0.0747964 17.0018 0.0685634 17.0143 0.0623303 17.0143C0.0498643 17.0205 0.0436312 17.0267 0.0436312 17.0267H0L3.77722 20.7883C3.77722 20.7883 3.77722 20.7883 3.78968 20.7821C3.79592 20.7821 3.81462 20.7697 3.83331 20.7573V20.7883Z" fill="#D6C09E"/>
<path id="Vector_17" d="M21.3798 21.2907C22.2961 21.0796 23.2809 20.8996 24.3467 20.7569C25.0573 20.6637 25.799 20.5831 26.5844 20.5272C26.5844 20.5272 26.5844 20.5272 26.5782 20.5272C26.4971 20.5272 26.4161 20.5272 26.3351 20.5334C26.1917 20.5334 26.0484 20.5396 25.905 20.5396C25.4999 20.5396 25.0822 20.521 24.6459 20.4837H24.6085C24.5026 20.4713 24.3904 20.4589 24.2782 20.4465C24.0039 20.4155 23.7172 20.3782 23.4305 20.3348C23.3993 20.3348 23.3744 20.3286 23.3432 20.3223C23.1874 20.2975 23.0316 20.2789 22.882 20.2541C22.8259 20.2479 22.7698 20.2417 22.7075 20.2292H22.7012C15.3275 19.3478 10.7587 23.4633 10.7587 23.4633C10.7463 23.4819 10.7276 23.4943 10.7089 23.5067C9.56823 24.6985 9.58693 26.5917 10.765 27.7649L12.4354 29.4285C12.4354 29.4285 13.2021 26.809 15.5769 24.4688C15.6143 24.4316 15.6517 24.3944 15.6891 24.3571C17.0416 23.066 18.8928 21.8742 21.3923 21.2845L21.3798 21.2907Z" fill="#5AA5BB"/>
</g>
</svg>
